<?xml version="1.0" encoding="UTF-8" standalone="no"?>
<!-- Created with Inkscape (http://www.inkscape.org/) -->

<svg
   xmlns:dc="http://purl.org/dc/elements/1.1/"
   xmlns:cc="http://creativecommons.org/ns#"
   xmlns:rdf="http://www.w3.org/1999/02/22-rdf-syntax-ns#"
   xmlns:svg="http://www.w3.org/2000/svg"
   xmlns="http://www.w3.org/2000/svg"
   xmlns:sodipodi="http://sodipodi.sourceforge.net/DTD/sodipodi-0.dtd"
   xmlns:inkscape="http://www.inkscape.org/namespaces/inkscape"
   id="svg2"
   version="1.1"
   inkscape:version="0.91 r13725"
   width="128"
   height="128"
   viewBox="0 0 128 128"
   sodipodi:docname="alacarte.svg">
  <metadata
     id="metadata8">
    <rdf:RDF>
      <cc:Work
         rdf:about="">
        <dc:format>image/svg+xml</dc:format>
        <dc:type
           rdf:resource="http://purl.org/dc/dcmitype/StillImage" />
        <dc:title></dc:title>
      </cc:Work>
    </rdf:RDF>
  </metadata>
  <defs
     id="defs6" />
  <sodipodi:namedview
     pagecolor="#ffffff"
     bordercolor="#666666"
     borderopacity="1"
     objecttolerance="10"
     gridtolerance="10"
     guidetolerance="10"
     inkscape:pageopacity="0"
     inkscape:pageshadow="2"
     inkscape:window-width="1440"
     inkscape:window-height="846"
     id="namedview4"
     showgrid="false"
     inkscape:zoom="1.84375"
     inkscape:cx="-12.474576"
     inkscape:cy="64"
     inkscape:window-x="0"
     inkscape:window-y="26"
     inkscape:window-maximized="1"
     inkscape:current-layer="svg2" />
  <g
     id="g6002">
    <path
       style="fill:#aaadac"
       d="M 3.5956595,114.4528 C 2.1791404,113.03628 2,107.47273 2,64.896453 2,12.247615 2.0710503,11.565979 7.8715623,8.5664177 12.411853,6.2185422 86.431929,6.2133792 89.783205,8.5607043 94.838331,12.101453 95,13.393416 95,50.25034 95,75.633409 95.313246,84.913246 96.2,85.8 c 0.776363,0.776363 4.79845,1.2 11.39301,1.2 8.3722,0 10.30144,0.28256 10.8,1.581787 0.97702,2.546078 0.66676,23.775153 -0.37148,25.418213 -0.82066,1.29872 -8.45436,1.5368 -56.889029,1.77423 -50.117213,0.24568 -56.1073041,0.10811 -57.5368415,-1.32143 z M 37.581381,102.86832 c 0.384678,-0.62242 -0.131306,-1.59657 -1.146631,-2.16477 -1.777423,-0.9947 -1.773349,-1.061538 0.109602,-1.798041 1.605402,-0.627942 1.652802,-0.777526 0.264665,-0.835224 -2.271927,-0.09443 -3.246011,1.698243 -1.842003,3.389965 0.886612,1.06831 0.739411,1.47631 -0.66391,1.8402 -1.457504,0.37793 -1.383159,0.48978 0.387879,0.58355 1.205041,0.0638 2.50572,-0.39325 2.890398,-1.01568 z m 4.668619,0.4694 c -1.711346,-0.69054 -1.57723,-3.27492 0.205453,-3.958999 1.143473,-0.438792 1.197061,-0.83827 0.25,-1.863655 C 40.93942,95.602981 40,96.659938 40,100.55902 c 0,2.64053 0.407088,3.42262 1.75,3.36203 1.045438,-0.0472 1.246741,-0.28201 0.5,-0.58333 z M 49.5,101 c 0,-1.937929 -0.562071,-2.552333 -2.5,-2.732768 -1.647297,-0.153375 -1.988378,0.01716 -1,0.5 C 47.747422,99.620869 48.580745,103 47.043837,103 46.469727,103 46,102.55 46,102 c 0,-0.55 -0.45,-1 -1,-1 -0.55,0 -1,0.70489 -1,1.56642 0,1.11887 0.785726,1.47602 2.75,1.25 2.182287,-0.2511 2.75,-0.83252 2.75,-2.81642 z m 3.5,1.58179 c 0,-0.78002 0.273145,-2.13002 0.606989,-3.000003 C 53.940833,98.711804 53.766907,98 53.220488,98 c -0.546419,0 -1.191627,1.35 -1.433796,3 -0.242168,1.65 -0.06824,3 0.386501,3 C 52.627937,104 53,103.3618 53,102.58179 Z m 6.25,0.75593 c -1.674394,-0.67563 -1.58827,-3.04467 0.146799,-4.03803 1.090704,-0.624446 1.130555,-1.045029 0.181848,-1.919245 -0.901049,-0.830301 -1.698863,-0.765709 -3.087928,0.25 C 55.460581,98.3837 55.153749,99 55.80887,99 56.463992,99 57,100.125 57,101.5 c 0,1.74436 0.528947,2.47614 1.75,2.42105 1.045438,-0.0472 1.246741,-0.28201 0.5,-0.58333 z M 47.923275,82.411106 C 50.386794,80.338192 51,79.047829 51,75.936787 51,72.711058 50.533084,71.808854 48.25,70.623072 46.7375,69.837513 43.7,67.757104 41.5,65.999941 39.3,64.242778 34.715648,61.539936 31.312552,59.993627 22.052929,55.786211 16.005498,51.257407 14.347238,47.288632 c -1.297574,-3.105533 -1.277857,-3.745576 0.184127,-5.976845 1.90911,-2.91367 8.534688,-6.087161 14.192981,-6.798093 3.458944,-0.434597 4.101369,-0.191624 5.060777,1.914046 C 35.31617,39.788024 47.941179,53 49.621128,53 50.696859,53 51,50.897002 51,43.434259 51,38.173101 50.53666,33.002758 49.970356,31.944609 47.876121,28.031496 43.814405,27 30.5,27 17.185595,27 13.123879,28.031496 11.029644,31.944609 10.411579,33.099476 10,42.799753 10,56.211752 c 0,29.74073 -0.8239685,28.622887 21.173275,28.724862 13.294588,0.06163 13.758485,-0.0083 16.75,-2.525508 z M 39.880488,53.5 c 1.596947,-1.972133 1.589035,-1.974247 -0.567788,-0.151755 -1.945569,1.643984 -2.608664,1.706214 -6,0.563086 L 29.5,52.626172 33.174258,51.731659 c 2.020841,-0.491982 3.943934,-1.597278 4.273538,-2.456214 0.937875,-2.444062 0.115577,-2.448964 -2.497099,-0.01488 -1.322067,1.231692 -2.639319,2.132322 -2.927227,2.001399 C 30.837419,50.722619 28,52.224632 28,53.39182 c 0,1.650725 9.353452,4.658771 9.880488,3.177539 0.209268,-0.588147 1.109268,-1.969359 2,-3.069359 z m 6.422333,2.013695 C 46.41127,54.971227 45.7125,54.375731 44.75,54.190371 43.655397,53.97957 43,54.470042 43,55.5 c 0,1.739789 2.955296,1.752043 3.302821,0.01369 z"
       id="path6020"
       inkscape:connector-curvature="0" />
    <path
       style="fill:#d0b443"
       d="M 3.6414096,112.50791 C 3.3285174,111.69253 3.0536161,89.86141 3.0305177,63.994316 2.9842931,12.22899 3.0539718,11.574811 8.93797,8.532077 11.64686,7.1312554 16.774938,6.9668331 49.995016,7.2156593 L 87.956536,7.5 90.728268,10.271691 93.5,13.043381 93.785099,49.990259 94.070199,86.937137 105.7851,87.218568 117.5,87.5 l 0.2789,12.61922 0.2789,12.61922 -2.99791,0.59958 c -1.64885,0.32977 -27.264541,0.61147 -56.92375,0.626 -46.745538,0.0229 -54.0015847,-0.17099 -54.4947304,-1.45611 z m 8.9096174,-9.97579 C 14.280283,98.393425 14.314828,98 12.948973,98 c -0.578064,0 -1.703064,1.560547 -2.5,3.46788 C 8.7197166,105.60658 8.6851716,106 10.051027,106 c 0.578064,0 1.703064,-1.56055 2.5,-3.46788 z m 23.867186,1.86089 c 1.880173,-0.72149 2.112771,-4.02184 0.331787,-4.707757 -0.6875,-0.264777 -0.252674,-0.432658 0.966279,-0.373069 1.793127,0.08766 2.106555,0.545522 1.641592,2.398076 C 38.768803,104.0573 39.00621,104.2 43.5,104.2 c 6.312249,0 6.5,-0.0924 6.5,-3.2 0,-2.623099 -0.345492,-2.99117 -2.75,-2.929715 -2.436844,0.06228 -2.52225,0.168153 -0.75,0.929715 1.750684,0.752295 1.777936,0.868191 0.218615,0.929715 C 45.738854,99.968372 44.678209,100.675 44.361626,101.5 43.530015,103.66715 42,103.34321 42,101 c 0,-1.1 0.546429,-2 1.214286,-2 0.716229,0 0.461969,-0.717787 -0.619898,-1.75 -1.343393,-1.281735 -1.95819,-1.415525 -2.297619,-0.5 -0.25489,0.6875 -1.749378,1.25 -3.321085,1.25 -3.651344,0 -4.829776,1.87593 -2.378459,3.78624 1.632113,1.2719 1.653844,1.39703 0.152775,0.87968 -1.732933,-0.59727 -2.369004,0.38174 -1.083333,1.66741 0.811662,0.81167 0.792962,0.81126 2.751546,0.0597 z M 46.5,102 c 0.339919,-0.55 0.816476,-1 1.059017,-1 C 47.801558,101 48,101.45 48,102 c 0,0.55 -0.476558,1 -1.059017,1 -0.582459,0 -0.780902,-0.45 -0.440983,-1 z m 12.498017,0.49761 c -0.812541,-0.97905 -0.73398,-1.6654 0.301321,-2.632521 1.198781,-1.119828 1.181632,-1.526976 -0.119102,-2.82771 C 58.045237,95.90238 57.556028,95.831916 57.247024,96.758929 57.019494,97.441518 55.745833,98 54.416667,98 c -1.329167,0 -2.422812,0.3375 -2.430322,0.75 -0.0075,0.4125 -0.284994,1.7625 -0.616631,3 -0.331637,1.2375 -0.152977,2.25 0.397023,2.25 0.55,0 1.235356,-0.9 1.523012,-2 0.287656,-1.1 1.226017,-2 2.085247,-2 1.021582,0 1.349628,0.55404 0.947902,1.60092 -0.337883,0.88051 -0.0077,1.97582 0.733639,2.43402 1.882637,1.16354 3.270769,0.0644 1.94148,-1.53733 z M 10,90 C 12.231148,89.285462 12.096722,89.18864 8.75,89.09968 6.6875,89.044856 5,89.45 5,90 c 0,1.14477 1.4254525,1.14477 5,0 z m 23.75,-0.735039 c -2.6125,-0.205999 -6.8875,-0.205999 -9.5,0 -2.6125,0.205998 -0.475,0.374543 4.75,0.374543 5.225,0 7.3625,-0.168545 4.75,-0.374543 z M 47.055391,83.970356 C 49.708606,82.550398 52,77.777881 52,73.671721 52,70.587766 51.448583,69.90993 46.5,66.910774 43.475,65.077432 41,63.247466 41,62.844182 41,62.440898 36.3875,59.881036 30.75,57.155601 19.622457,51.776019 16.576661,49.207215 15.546812,44.333339 14.90898,41.314721 15.113709,41.048136 19.925992,38.631064 27.18156,34.9868 31.786324,34.267973 32.676212,36.64069 33.945037,40.023775 44.434871,51.102243 48.25,53.088399 L 52,55.040648 52,44.420324 52,33.8 48.6,30.4 45.2,27 30.615777,27 16.031553,27 12.765777,29.915928 9.5,32.831856 9.1875439,53.165928 C 8.8284528,76.53492 9.1010267,78.828299 12.660651,82.387924 15.24347,84.970743 15.439949,85 30.202105,85 38.529232,85 45.982297,84.544658 47.055391,83.970356 Z M 60,63.646716 C 60,62.586062 45.695693,54 43.928652,54 c -3.068139,0 -1.806804,2.339525 1.646113,3.053211 1.608879,0.33254 5.400235,2.027384 8.425235,3.76632 5.693105,3.272708 6,3.417316 6,2.827185 z m -19.61105,-9.097646 3.254645,-3.450929 -2.43333,-2.43333 -2.43333,-2.433331 -5.388468,3.094976 C 30.42481,51.028693 28,52.95348 28,53.603762 c 0,1.033245 6.067647,4.20286 8.317152,4.34471 0.449434,0.02834 2.281743,-1.50139 4.071798,-3.399402 z M 36.703315,51.531425 C 38.553122,48.989862 40.4656,48.326306 41.432397,49.890616 42.015405,50.833942 37.821176,54 35.988498,54 c -0.595027,0 -0.27336,-1.110859 0.714817,-2.468575 z"
       id="path6018"
       inkscape:connector-curvature="0" />
    <path
       style="fill:#6356ee"
       d="M 3.6414096,112.50791 C 3.3285174,111.69253 3.0536161,89.86141 3.0305177,63.994316 2.9842931,12.22899 3.0539718,11.574811 8.93797,8.532077 11.64686,7.1312554 16.774938,6.9668331 49.995016,7.2156593 L 87.956536,7.5 90.728268,10.271691 93.5,13.043381 93.785099,49.990259 94.070199,86.937137 105.7851,87.218568 117.5,87.5 l 0.2789,12.61922 0.2789,12.61922 -2.99791,0.59958 c -1.64885,0.32977 -27.264541,0.61147 -56.92375,0.626 -46.745538,0.0229 -54.0015847,-0.17099 -54.4947304,-1.45611 z m 20.1268614,-4.34353 c 0.697549,-0.44275 1.652977,-2.14639 2.123173,-3.78587 0.851393,-2.96863 0.838219,-2.98045 -3.209912,-2.87888 -3.607697,0.0905 -4.152301,0.42911 -4.842788,3.01094 -1.038824,3.8843 2.312655,5.94951 5.929527,3.65381 z M 12.551027,102.53212 C 14.280283,98.393425 14.314828,98 12.948973,98 c -0.578064,0 -1.703064,1.560547 -2.5,3.46788 C 8.7197166,105.60658 8.6851716,106 10.051027,106 c 0.578064,0 1.703064,-1.56055 2.5,-3.46788 z m 23.867186,1.86089 c 1.880173,-0.72149 2.112771,-4.02184 0.331787,-4.707757 -0.6875,-0.264777 -0.252674,-0.432658 0.966279,-0.373069 1.793127,0.08766 2.106555,0.545522 1.641592,2.398076 C 38.768803,104.0573 39.00621,104.2 43.5,104.2 c 6.312249,0 6.5,-0.0924 6.5,-3.2 0,-2.623099 -0.345492,-2.99117 -2.75,-2.929715 -2.436844,0.06228 -2.52225,0.168153 -0.75,0.929715 1.750684,0.752295 1.777936,0.868191 0.218615,0.929715 C 45.738854,99.968372 44.678209,100.675 44.361626,101.5 43.530015,103.66715 42,103.34321 42,101 c 0,-1.1 0.546429,-2 1.214286,-2 0.716229,0 0.461969,-0.717787 -0.619898,-1.75 -1.343393,-1.281735 -1.95819,-1.415525 -2.297619,-0.5 -0.25489,0.6875 -1.749378,1.25 -3.321085,1.25 -3.651344,0 -4.829776,1.87593 -2.378459,3.78624 1.632113,1.2719 1.653844,1.39703 0.152775,0.87968 -1.732933,-0.59727 -2.369004,0.38174 -1.083333,1.66741 0.811662,0.81167 0.792962,0.81126 2.751546,0.0597 z M 46.5,102 c 0.339919,-0.55 0.816476,-1 1.059017,-1 C 47.801558,101 48,101.45 48,102 c 0,0.55 -0.476558,1 -1.059017,1 -0.582459,0 -0.780902,-0.45 -0.440983,-1 z m 12.498017,0.49761 c -0.812541,-0.97905 -0.73398,-1.6654 0.301321,-2.632521 1.198781,-1.119828 1.181632,-1.526976 -0.119102,-2.82771 C 58.045237,95.90238 57.556028,95.831916 57.247024,96.758929 57.019494,97.441518 55.745833,98 54.416667,98 c -1.329167,0 -2.422812,0.3375 -2.430322,0.75 -0.0075,0.4125 -0.284994,1.7625 -0.616631,3 -0.331637,1.2375 -0.152977,2.25 0.397023,2.25 0.55,0 1.235356,-0.9 1.523012,-2 0.287656,-1.1 1.226017,-2 2.085247,-2 1.021582,0 1.349628,0.55404 0.947902,1.60092 -0.337883,0.88051 -0.0077,1.97582 0.733639,2.43402 1.882637,1.16354 3.270769,0.0644 1.94148,-1.53733 z M 26.013655,98.75 c 0.0075,-0.6875 0.286743,-2.269188 0.620518,-3.514862 0.482742,-1.801633 0.27542,-2.137676 -1.013655,-1.643011 C 24.729233,93.934145 24,94.975833 24,95.906989 24,96.838145 23.46,98.14 22.8,98.8 c -0.933333,0.933333 -0.711111,1.2 1,1.2 1.21,0 2.206145,-0.5625 2.213655,-1.25 z m -10.54731,-5.259715 c 0.554221,-1.644657 1.381807,-3.26087 1.83908,-3.591585 0.457273,-0.330715 -2.124381,-0.651668 -5.73701,-0.713229 C 7.7450619,89.120319 5,89.49503 5,90.082084 c 0,0.619095 1.4108224,0.74387 3.6535778,0.323127 l 3.6535782,-0.685416 -0.600962,3.703294 c -0.504488,3.108796 -0.331795,3.651457 1.075757,3.380387 0.922196,-0.177599 2.130173,-1.668535 2.684394,-3.313191 z M 33.75,89.264961 c -2.6125,-0.205999 -6.8875,-0.205999 -9.5,0 -2.6125,0.205998 -0.475,0.374543 4.75,0.374543 5.225,0 7.3625,-0.168545 4.75,-0.374543 z M 47.055391,83.970356 C 49.708606,82.550398 52,77.777881 52,73.671721 52,70.587766 51.448583,69.90993 46.5,66.910774 43.475,65.077432 41,63.247466 41,62.844182 41,62.440898 36.3875,59.881036 30.75,57.155601 21.029718,52.456355 13.709708,47 17.125686,47 c 0.810873,0 1.969608,0.495294 2.574966,1.100652 0.80087,0.80087 2.081,0.746155 4.7,-0.200888 C 26.380294,47.183917 28,46.274378 28,45.878567 c 0,-0.395811 1.353927,-1.017029 3.008726,-1.380484 1.6548,-0.363455 2.753242,-1.074209 2.440983,-1.579455 C 33.137451,42.413383 33.778396,42 34.874033,42 c 1.152583,0 3.570401,1.926147 5.737394,4.570677 2.05993,2.513873 5.465057,5.448018 7.56695,6.520324 L 52,55.040648 52,44.420324 52,33.8 48.6,30.4 45.2,27 30.615777,27 16.031553,27 12.765777,29.915928 9.5,32.831856 9.1875439,53.165928 C 8.8284528,76.53492 9.1010267,78.828299 12.660651,82.387924 15.24347,84.970743 15.439949,85 30.202105,85 38.529232,85 45.982297,84.544658 47.055391,83.970356 Z M 15,42.163519 c 0,-1.322751 10.264273,-6.165935 13.014353,-6.140806 1.906318,0.01742 0.981516,0.833162 -3.967927,3.5 C 17.614911,42.988114 15,43.751452 15,42.163519 Z M 65.048886,67.558904 C 62.638559,64.654638 46.095807,54 43.996872,54 c -3.141356,0 -1.913099,2.332882 1.607338,3.052888 3.132374,0.640639 9.294044,4.081816 15.89579,8.8775 4.614399,3.352023 5.203696,3.62244 3.548886,1.628516 z M 40.38895,54.54907 l 3.254645,-3.450929 -2.43333,-2.43333 -2.43333,-2.433331 -5.388468,3.094976 C 30.42481,51.028693 28,52.95348 28,53.603762 c 0,1.033245 6.067647,4.20286 8.317152,4.34471 0.449434,0.02834 2.281743,-1.50139 4.071798,-3.399402 z M 36.703315,51.531425 C 38.553122,48.989862 40.4656,48.326306 41.432397,49.890616 42.015405,50.833942 37.821176,54 35.988498,54 c -0.595027,0 -0.27336,-1.110859 0.714817,-2.468575 z"
       id="path6016"
       inkscape:connector-curvature="0" />
    <path
       style="fill:#6237cf"
       d="M 3.6414096,112.50791 C 3.3285174,111.69253 3.0536161,89.86141 3.0305177,63.994316 2.9842931,12.22899 3.0539718,11.574811 8.93797,8.532077 11.64686,7.1312554 16.774938,6.9668331 49.995016,7.2156593 L 87.956536,7.5 90.728268,10.271691 93.5,13.043381 93.785099,49.990259 94.070199,86.937137 105.7851,87.218568 117.5,87.5 l 0.2789,12.61922 0.2789,12.61922 -2.99791,0.59958 c -1.64885,0.32977 -27.264541,0.61147 -56.92375,0.626 -46.745538,0.0229 -54.0015847,-0.17099 -54.4947304,-1.45611 z m 20.1268614,-4.34353 c 0.697549,-0.44275 1.652977,-2.14639 2.123173,-3.78587 0.851393,-2.96863 0.838219,-2.98045 -3.209912,-2.87888 -3.607697,0.0905 -4.152301,0.42911 -4.842788,3.01094 -1.038824,3.8843 2.312655,5.94951 5.929527,3.65381 z m -8.352017,-5.51709 c 0.636394,-3.158233 0.07883,-4.655173 -1.725271,-4.631977 -2.187114,0.02812 -3.7194109,1.597013 -4.6172212,4.727497 -0.8732357,3.04479 -0.8281114,3.099 2.4389832,2.92969 2.801939,-0.1452 3.419643,-0.62392 3.903509,-3.02521 z m 21.001959,1.74572 c 1.880173,-0.72149 2.112771,-4.02184 0.331787,-4.707757 -0.6875,-0.264777 -0.252674,-0.432658 0.966279,-0.373069 1.793127,0.08766 2.106555,0.545522 1.641592,2.398076 C 38.768803,104.0573 39.00621,104.2 43.5,104.2 c 6.312249,0 6.5,-0.0924 6.5,-3.2 0,-2.623099 -0.345492,-2.99117 -2.75,-2.929715 -2.436844,0.06228 -2.52225,0.168153 -0.75,0.929715 1.750684,0.752295 1.777936,0.868191 0.218615,0.929715 C 45.738854,99.968372 44.678209,100.675 44.361626,101.5 43.530015,103.66715 42,103.34321 42,101 c 0,-1.1 0.546429,-2 1.214286,-2 0.716229,0 0.461969,-0.717787 -0.619898,-1.75 -1.343393,-1.281735 -1.95819,-1.415525 -2.297619,-0.5 -0.25489,0.6875 -1.749378,1.25 -3.321085,1.25 -3.651344,0 -4.829776,1.87593 -2.378459,3.78624 1.632113,1.2719 1.653844,1.39703 0.152775,0.87968 -1.732933,-0.59727 -2.369004,0.38174 -1.083333,1.66741 0.811662,0.81167 0.792962,0.81126 2.751546,0.0597 z M 46.5,102 c 0.339919,-0.55 0.816476,-1 1.059017,-1 C 47.801558,101 48,101.45 48,102 c 0,0.55 -0.476558,1 -1.059017,1 -0.582459,0 -0.780902,-0.45 -0.440983,-1 z m 12.498017,0.49761 c -0.812541,-0.97905 -0.73398,-1.6654 0.301321,-2.632521 1.198781,-1.119828 1.181632,-1.526976 -0.119102,-2.82771 C 58.045237,95.90238 57.556028,95.831916 57.247024,96.758929 57.019494,97.441518 55.745833,98 54.416667,98 c -1.329167,0 -2.422812,0.3375 -2.430322,0.75 -0.0075,0.4125 -0.284994,1.7625 -0.616631,3 -0.331637,1.2375 -0.152977,2.25 0.397023,2.25 0.55,0 1.235356,-0.9 1.523012,-2 0.287656,-1.1 1.226017,-2 2.085247,-2 1.021582,0 1.349628,0.55404 0.947902,1.60092 -0.337883,0.88051 -0.0077,1.97582 0.733639,2.43402 1.882637,1.16354 3.270769,0.0644 1.94148,-1.53733 z m 56.270763,-5.530991 c 0.42769,-2.971829 0.5563,-5.980067 0.2858,-6.684972 C 115.17739,89.298688 110.4113,89 95.103638,89 l -19.959132,0 0.510667,5.75 c 0.280866,3.1625 0.650402,6.22435 0.821189,6.8041 0.205054,0.69608 6.713601,1.01364 19.162666,0.93497 l 18.852142,-0.11913 0.77761,-5.403321 z M 26.013655,98.75 c 0.0075,-0.6875 0.286743,-2.269188 0.620518,-3.514862 0.482742,-1.801633 0.27542,-2.137676 -1.013655,-1.643011 C 24.729233,93.934145 24,94.975833 24,95.906989 24,96.838145 23.46,98.14 22.8,98.8 c -0.933333,0.933333 -0.711111,1.2 1,1.2 1.21,0 2.206145,-0.5625 2.213655,-1.25 z m -10.54731,-5.259715 c 0.554221,-1.644657 1.381807,-3.26087 1.83908,-3.591585 0.457273,-0.330715 -2.124381,-0.651668 -5.73701,-0.713229 C 7.7450619,89.120319 5,89.49503 5,90.082084 c 0,0.619095 1.4108224,0.74387 3.6535778,0.323127 l 3.6535782,-0.685416 -0.600962,3.703294 c -0.504488,3.108796 -0.331795,3.651457 1.075757,3.380387 0.922196,-0.177599 2.130173,-1.668535 2.684394,-3.313191 z M 33.75,89.264961 c -2.6125,-0.205999 -6.8875,-0.205999 -9.5,0 -2.6125,0.205998 -0.475,0.374543 4.75,0.374543 5.225,0 7.3625,-0.168545 4.75,-0.374543 z M 47.055391,83.970356 C 49.708606,82.550398 52,77.777881 52,73.671721 52,70.587766 51.448583,69.90993 46.5,66.910774 43.475,65.077432 41,63.247466 41,62.844182 41,62.440898 36.3875,59.881036 30.75,57.155601 21.029718,52.456355 13.709708,47 17.125686,47 c 0.810873,0 1.969608,0.495294 2.574966,1.100652 0.80087,0.80087 2.081,0.746155 4.7,-0.200888 C 26.380294,47.183917 28,46.274378 28,45.878567 c 0,-0.395811 1.353927,-1.017029 3.008726,-1.380484 1.6548,-0.363455 2.753242,-1.074209 2.440983,-1.579455 C 33.137451,42.413383 33.778396,42 34.874033,42 c 1.152583,0 3.570401,1.926147 5.737394,4.570677 2.05993,2.513873 5.465057,5.448018 7.56695,6.520324 L 52,55.040648 52,44.954582 C 52,34.5339 51.275593,31.825512 47.63296,28.627235 L 45.5,26.754469 48,28.242234 c 4.108342,2.444898 5.831206,6.606339 6.695018,16.171279 L 55.5,53.327026 l 3.983411,2.226862 c 3.572989,1.997422 5.397665,2.228883 17.709623,2.246469 l 13.726211,0.01961 0.290377,-19.659982 C 91.551081,15.041547 90.98347,12.008897 85.996363,10.306442 81.649991,8.8227157 17.152454,8.5222955 12.131143,9.9623888 6.36872,11.61503 6.051816,12.734133 6.1737782,31 c 0.079563,11.915836 0.2961017,14.694117 0.7793994,10 0.3680753,-3.575 1.4809412,-7.7375 2.4730351,-9.25 2.4279423,-3.701528 2.7692203,-3.461984 1.0227603,0.717881 -1.6914428,4.048194 -2.109849,41.663684 -0.5102337,45.870991 0.5163067,1.35799 1.9511597,3.412284 3.1885617,4.5651 C 15.202448,84.837266 16.532176,85 30.254303,85 38.54563,85 45.983162,84.544195 47.055391,83.970356 Z M 15,42.163519 c 0,-1.322751 10.264273,-6.165935 13.014353,-6.140806 1.906318,0.01742 0.981516,0.833162 -3.967927,3.5 C 17.614911,42.988114 15,43.751452 15,42.163519 Z m 8.20625,-15.904072 c 3.688437,-0.191858 9.988437,-0.193134 14,-0.0028 C 41.217812,26.446945 38.2,26.603919 30.5,26.60548 22.8,26.60708 19.517812,26.451342 23.20625,26.259484 Z M 65.048886,67.558904 C 62.638559,64.654638 46.095807,54 43.996872,54 c -3.141356,0 -1.913099,2.332882 1.607338,3.052888 3.132374,0.640639 9.294044,4.081816 15.89579,8.8775 4.614399,3.352023 5.203696,3.62244 3.548886,1.628516 z M 40.346475,54.594107 43.558646,51.188214 41.175923,48.418134 C 39.030084,45.923447 38.579793,45.782326 36.646601,46.998649 35.46597,47.741476 32.8125,49.254149 30.75,50.360145 28.6875,51.46614 27,52.759562 27,53.234415 c 0,0.824046 7.608406,4.697698 9.317152,4.743623 0.449434,0.01208 2.262629,-1.51069 4.029323,-3.383931 z"
       id="path6014"
       inkscape:connector-curvature="0" />
    <path
       style="fill:#b0661b"
       d="M 3.4979179,111.74526 C 3.2021251,110.51037 3.0815874,88.104787 3.2300564,61.955082 3.5329605,8.6048586 3.3224996,10.115256 10.740544,8.0551918 13.019075,7.4224214 28.201377,7.008957 49.282119,7.0055769 87.583906,6.9994357 89.534079,7.264541 92.433582,12.871562 93.769215,15.454391 94,21.133643 94,51.418605 l 0,35.517924 11.75,0.281736 11.75,0.281735 0.2789,12.61922 0.2789,12.61922 -2.99791,0.59958 c -1.64885,0.32977 -27.303822,0.61149 -57.011041,0.62604 l -54.0131259,0.0264 -0.5378052,-2.24525 z M 116,99.962114 116,89 l -20.975249,0 -20.975249,0 0.975249,2.5651 c 1.404802,3.69491 1.199468,12.96294 -0.370367,16.71702 L 73.308767,111.5 94.654384,111.21211 116,110.92423 116,99.962114 Z m -92.231729,8.202266 c 0.697549,-0.44275 1.652977,-2.14639 2.123173,-3.78587 0.851393,-2.96863 0.838219,-2.98045 -3.209912,-2.87888 -3.607697,0.0905 -4.152301,0.42911 -4.842788,3.01094 -1.038824,3.8843 2.312655,5.94951 5.929527,3.65381 z M 15.604583,102.5 c 0.806111,-2.18936 0.806111,-3.198522 0,-3.734687 -2.725639,-1.812895 -5.332186,-0.201903 -6.5513591,4.049107 -0.893929,3.11695 -0.8532972,3.16943 2.2682711,2.92969 2.51662,-0.19328 3.408521,-0.86882 4.283088,-3.24411 z m 20.81363,1.89301 c 1.880173,-0.72149 2.112771,-4.02184 0.331787,-4.707757 -0.6875,-0.264777 -0.252674,-0.432658 0.966279,-0.373069 1.793127,0.08766 2.106555,0.545522 1.641592,2.398076 C 38.768803,104.0573 39.00621,104.2 43.5,104.2 c 6.312249,0 6.5,-0.0924 6.5,-3.2 0,-2.623099 -0.345492,-2.99117 -2.75,-2.929715 -2.436844,0.06228 -2.52225,0.168153 -0.75,0.929715 1.750684,0.752295 1.777936,0.868191 0.218615,0.929715 C 45.738854,99.968372 44.678209,100.675 44.361626,101.5 43.530015,103.66715 42,103.34321 42,101 c 0,-1.1 0.546429,-2 1.214286,-2 0.716229,0 0.461969,-0.717787 -0.619898,-1.75 -1.343393,-1.281735 -1.95819,-1.415525 -2.297619,-0.5 -0.25489,0.6875 -1.749378,1.25 -3.321085,1.25 -3.651344,0 -4.829776,1.87593 -2.378459,3.78624 1.632113,1.2719 1.653844,1.39703 0.152775,0.87968 -1.732933,-0.59727 -2.369004,0.38174 -1.083333,1.66741 0.811662,0.81167 0.792962,0.81126 2.751546,0.0597 z M 46.5,102 c 0.339919,-0.55 0.816476,-1 1.059017,-1 C 47.801558,101 48,101.45 48,102 c 0,0.55 -0.476558,1 -1.059017,1 -0.582459,0 -0.780902,-0.45 -0.440983,-1 z m 12.498017,0.49761 c -0.812541,-0.97905 -0.73398,-1.6654 0.301321,-2.632521 1.198781,-1.119828 1.181632,-1.526976 -0.119102,-2.82771 C 58.045237,95.90238 57.556028,95.831916 57.247024,96.758929 57.019494,97.441518 55.745833,98 54.416667,98 c -1.329167,0 -2.422812,0.3375 -2.430322,0.75 -0.0075,0.4125 -0.284994,1.7625 -0.616631,3 -0.331637,1.2375 -0.152977,2.25 0.397023,2.25 0.55,0 1.235356,-0.9 1.523012,-2 0.287656,-1.1 1.226017,-2 2.085247,-2 1.021582,0 1.349628,0.55404 0.947902,1.60092 -0.337883,0.88051 -0.0077,1.97582 0.733639,2.43402 1.882637,1.16354 3.270769,0.0644 1.94148,-1.53733 z M 26.013655,98.75 c 0.0075,-0.6875 0.286743,-2.269188 0.620518,-3.514862 0.482742,-1.801633 0.27542,-2.137676 -1.013655,-1.643011 C 24.729233,93.934145 24,94.975833 24,95.906989 24,96.838145 23.46,98.14 22.8,98.8 c -0.933333,0.933333 -0.711111,1.2 1,1.2 1.21,0 2.206145,-0.5625 2.213655,-1.25 z m -10.54731,-5.259715 c 0.554221,-1.644657 1.381807,-3.26087 1.83908,-3.591585 0.457273,-0.330715 -2.124381,-0.651668 -5.73701,-0.713229 C 7.7450619,89.120319 5,89.49503 5,90.082084 c 0,0.619095 1.4108224,0.74387 3.6535778,0.323127 l 3.6535782,-0.685416 -0.600962,3.703294 c -0.504488,3.108796 -0.331795,3.651457 1.075757,3.380387 0.922196,-0.177599 2.130173,-1.668535 2.684394,-3.313191 z M 33.75,89.264961 c -2.6125,-0.205999 -6.8875,-0.205999 -9.5,0 -2.6125,0.205998 -0.475,0.374543 4.75,0.374543 5.225,0 7.3625,-0.168545 4.75,-0.374543 z M 11.150432,84.660128 c -1.2090071,-1.28693 -2.5640183,-3.64943 -3.0111355,-5.25 C 7.3143211,76.456917 7.6698064,38.99686 8.5309793,38.135687 8.7889407,37.877726 9,46.54625 9,57.399075 9,85.31381 8.7152117,84.945346 30.315741,84.977764 38.611461,84.990215 45.978145,84.54688 47.055391,83.970356 49.708606,82.550398 52,77.777881 52,73.671721 52,70.587766 51.448583,69.90993 46.5,66.910774 43.475,65.077432 41,63.247466 41,62.844182 41,62.440898 36.3875,59.881036 30.75,57.155601 21.029718,52.456355 13.709708,47 17.125686,47 c 0.810873,0 1.969608,0.495294 2.574966,1.100652 0.80087,0.80087 2.081,0.746155 4.7,-0.200888 C 26.380294,47.183917 28,46.274378 28,45.878567 c 0,-0.395811 1.353927,-1.017029 3.008726,-1.380484 1.6548,-0.363455 2.753242,-1.074209 2.440983,-1.579455 C 33.137451,42.413383 33.778396,42 34.874033,42 c 1.152583,0 3.570401,1.926147 5.737394,4.570677 2.05993,2.513873 5.465057,5.448018 7.56695,6.520324 L 52,55.040648 52.19586,45.770324 c 0.175512,-8.307168 0.22791,-8.543047 0.504333,-2.270324 0.169659,3.85 0.526168,7.957009 0.792242,9.126687 0.291686,1.282273 5.260932,5.6018 12.515221,10.878882 C 82.637393,75.602755 85.020451,78.84116 80.169134,82.75 77.600736,84.819428 74.793938,84.213713 65.109093,79.5 60.023932,77.025 55.494174,75 55.042964,75 c -0.45121,0 -1.106392,1.524566 -1.455961,3.387924 -0.349568,1.863358 -1.811012,4.563358 -3.247654,6 L 47.727273,87 69.851855,87 91.976438,87 91.738219,50.527327 C 91.500032,14.059605 91.499691,14.054346 89.223259,11.777327 86.947236,9.5007178 86.934869,9.4999101 49.991548,9.2148622 8.7219236,8.8964332 7.8702543,9.0139678 6.2486162,15.251602 5.7841374,17.038221 5.5865566,33.9125 5.8095478,52.75 L 6.2149864,87 9.7818072,87 13.348628,87 11.150432,84.660128 Z M 15,42.163519 c 0,-1.322751 10.264273,-6.165935 13.014353,-6.140806 1.906318,0.01742 0.981516,0.833162 -3.967927,3.5 C 17.614911,42.988114 15,43.751452 15,42.163519 Z M 65.048886,67.558904 C 62.638559,64.654638 46.095807,54 43.996872,54 c -3.141356,0 -1.913099,2.332882 1.607338,3.052888 3.132374,0.640639 9.294044,4.081816 15.89579,8.8775 4.614399,3.352023 5.203696,3.62244 3.548886,1.628516 z M 40.346475,54.594107 43.558646,51.188214 41.175923,48.418134 C 39.030084,45.923447 38.579793,45.782326 36.646601,46.998649 35.46597,47.741476 32.8125,49.254149 30.75,50.360145 28.6875,51.46614 27,52.759562 27,53.234415 c 0,0.824046 7.608406,4.697698 9.317152,4.743623 0.449434,0.01208 2.262629,-1.51069 4.029323,-3.383931 z"
       id="path6012"
       inkscape:connector-curvature="0" />
    <path
       style="fill:#4f9c44"
       d="M 3.4979179,111.74526 C 3.2021251,110.51037 3.0815874,88.104787 3.2300564,61.955082 3.5329605,8.6048586 3.3224996,10.115256 10.740544,8.0551918 13.019075,7.4224214 28.201377,7.008957 49.282119,7.0055769 87.583906,6.9994357 89.534079,7.264541 92.433582,12.871562 93.769215,15.454391 94,21.133643 94,51.418605 l 0,35.517924 11.75,0.281736 11.75,0.281735 0.2789,12.61922 0.2789,12.61922 -2.99791,0.59958 c -1.64885,0.32977 -27.303822,0.61149 -57.011041,0.62604 l -54.0131259,0.0264 -0.5378052,-2.24525 z M 116,99.962114 116,89 l -20.975249,0 -20.975249,0 0.975249,2.5651 c 1.404802,3.69491 1.199468,12.96294 -0.370367,16.71702 L 73.308767,111.5 94.654384,111.21211 116,110.92423 116,99.962114 Z m -91.202839,7.782296 c 0.573128,-0.69058 1.348354,-2.47601 1.722724,-3.96762 0.625791,-2.49335 0.45086,-2.7006 -2.169606,-2.57044 -1.567653,0.0779 -3.469029,-0.0492 -4.225279,-0.28239 -1.588809,-0.48988 -3.610683,4.36799 -2.750714,6.60903 0.690166,1.79854 5.980621,1.94923 7.422875,0.21142 z M 15.604583,102.5 c 0.806111,-2.18936 0.806111,-3.198522 0,-3.734687 -2.725639,-1.812895 -5.332186,-0.201903 -6.5513591,4.049107 -0.893929,3.11695 -0.8532972,3.16943 2.2682711,2.92969 2.51662,-0.19328 3.408521,-0.86882 4.283088,-3.24411 z m 20.81363,1.89301 c 1.880173,-0.72149 2.112771,-4.02184 0.331787,-4.707757 -0.6875,-0.264777 -0.252674,-0.432658 0.966279,-0.373069 1.793127,0.08766 2.106555,0.545522 1.641592,2.398076 C 38.768803,104.0573 39.00621,104.2 43.5,104.2 c 6.312249,0 6.5,-0.0924 6.5,-3.2 0,-2.623099 -0.345492,-2.99117 -2.75,-2.929715 -2.436844,0.06228 -2.52225,0.168153 -0.75,0.929715 1.750684,0.752295 1.777936,0.868191 0.218615,0.929715 C 45.738854,99.968372 44.678209,100.675 44.361626,101.5 43.530015,103.66715 42,103.34321 42,101 c 0,-1.1 0.546429,-2 1.214286,-2 0.716229,0 0.461969,-0.717787 -0.619898,-1.75 -1.343393,-1.281735 -1.95819,-1.415525 -2.297619,-0.5 -0.25489,0.6875 -1.749378,1.25 -3.321085,1.25 -3.651344,0 -4.829776,1.87593 -2.378459,3.78624 1.632113,1.2719 1.653844,1.39703 0.152775,0.87968 -1.732933,-0.59727 -2.369004,0.38174 -1.083333,1.66741 0.811662,0.81167 0.792962,0.81126 2.751546,0.0597 z M 46.5,102 c 0.339919,-0.55 0.816476,-1 1.059017,-1 C 47.801558,101 48,101.45 48,102 c 0,0.55 -0.476558,1 -1.059017,1 -0.582459,0 -0.780902,-0.45 -0.440983,-1 z m 12.498017,0.49761 c -0.812541,-0.97905 -0.73398,-1.6654 0.301321,-2.632521 1.198781,-1.119828 1.181632,-1.526976 -0.119102,-2.82771 C 58.045237,95.90238 57.556028,95.831916 57.247024,96.758929 57.019494,97.441518 55.745833,98 54.416667,98 c -1.329167,0 -2.422812,0.3375 -2.430322,0.75 -0.0075,0.4125 -0.284994,1.7625 -0.616631,3 -0.331637,1.2375 -0.152977,2.25 0.397023,2.25 0.55,0 1.235356,-0.9 1.523012,-2 0.287656,-1.1 1.226017,-2 2.085247,-2 1.021582,0 1.349628,0.55404 0.947902,1.60092 -0.337883,0.88051 -0.0077,1.97582 0.733639,2.43402 1.882637,1.16354 3.270769,0.0644 1.94148,-1.53733 z M 26.013655,98.75 c 0.0075,-0.6875 0.286743,-2.269188 0.620518,-3.514862 0.482742,-1.801633 0.27542,-2.137676 -1.013655,-1.643011 C 24.729233,93.934145 24,94.975833 24,95.906989 24,96.838145 23.46,98.14 22.8,98.8 c -0.933333,0.933333 -0.711111,1.2 1,1.2 1.21,0 2.206145,-0.5625 2.213655,-1.25 z m -6.69821,-5.015309 0.866052,-3.662041 9.159252,-0.327288 C 34.378337,89.565354 30.9625,89.390498 21.75,89.356792 12.478981,89.322873 5,89.696276 5,90.193068 c 0,0.493657 1.6241458,0.592867 3.6092128,0.220466 3.4433972,-0.645986 3.5775792,-0.567668 2.9206532,1.704687 -0.378708,1.309978 -0.880255,3.081301 -1.114549,3.936272 -0.339568,1.23913 0.432166,1.532963 3.804043,1.448366 4.016694,-0.100774 4.273712,-0.290819 5.096085,-3.768168 z m -8.165013,-9.074563 c -1.2090071,-1.28693 -2.5640183,-3.64943 -3.0111355,-5.25 C 7.3143211,76.456917 7.6698064,38.99686 8.5309793,38.135687 8.7889407,37.877726 9,46.54625 9,57.399075 9,85.31381 8.7152117,84.945346 30.315741,84.977764 38.611461,84.990215 45.978145,84.54688 47.055391,83.970356 49.708606,82.550398 52,77.777881 52,73.671721 52,70.587766 51.448583,69.90993 46.5,66.910774 43.475,65.077432 41,63.20541 41,62.750725 41,62.29604 37.4,60.301614 33,58.318666 22.534562,53.602209 22.543168,52.904136 33.138245,47.104498 l 5.638244,-3.086318 2.669687,3.500141 c 1.468329,1.925077 4.443619,4.405133 6.611756,5.511234 L 52,55.040648 52.19586,45.770324 c 0.175512,-8.307168 0.22791,-8.543047 0.504333,-2.270324 0.169659,3.85 0.526168,7.957009 0.792242,9.126687 0.291686,1.282273 5.260932,5.6018 12.515221,10.878882 C 82.637393,75.602755 85.020451,78.84116 80.169134,82.75 77.600736,84.819428 74.793938,84.213713 65.109093,79.5 60.023932,77.025 55.494174,75 55.042964,75 c -0.45121,0 -1.106392,1.524566 -1.455961,3.387924 -0.349568,1.863358 -1.811012,4.563358 -3.247654,6 L 47.727273,87 69.851855,87 91.976438,87 91.738219,50.527327 C 91.500032,14.059605 91.499691,14.054346 89.223259,11.777327 86.947236,9.5007178 86.934869,9.4999101 49.991548,9.2148622 8.7219236,8.8964332 7.8702543,9.0139678 6.2486162,15.251602 5.7841374,17.038221 5.5865566,33.9125 5.8095478,52.75 L 6.2149864,87 9.7818072,87 13.348628,87 11.150432,84.660128 Z M 65.048886,67.558904 C 62.638559,64.654638 46.095807,54 43.996872,54 c -3.141356,0 -1.913099,2.332882 1.607338,3.052888 3.132374,0.640639 9.294044,4.081816 15.89579,8.8775 4.614399,3.352023 5.203696,3.62244 3.548886,1.628516 z M 40.346475,54.594107 43.558646,51.188214 41.175923,48.418134 C 39.030084,45.923447 38.579793,45.782326 36.646601,46.998649 35.46597,47.741476 32.8125,49.254149 30.75,50.360145 28.6875,51.46614 27,52.759562 27,53.234415 c 0,0.824046 7.608406,4.697698 9.317152,4.743623 0.449434,0.01208 2.262629,-1.51069 4.029323,-3.383931 z"
       id="path6010"
       inkscape:connector-curvature="0" />
    <path
       style="fill:#4d29a4"
       d="m 38.5,113.0195 c -32.3343294,-0.47993 -36.427379,-0.87087 -26.25,-2.5072 2.0625,-0.33161 3.75,-0.98971 3.75,-1.46246 0,-0.47274 1.706171,-0.63068 3.79149,-0.35098 4.194043,0.56254 5.613825,-0.48127 6.735953,-4.95218 0.611117,-2.43488 0.424043,-2.72297 -1.669606,-2.5712 -1.296811,0.094 -3.317701,-0.14563 -4.490869,-0.53254 -1.847934,-0.60944 -2.222869,-0.22459 -2.805172,2.87935 C 16.778759,107.69624 15.765299,108.2439 11,107.06823 7.5698845,106.22196 7.8625341,106.031 13.25,105.6 c 0.6875,-0.055 1.754363,-1.45 2.370806,-3.1 1.030443,-2.758131 0.909508,-3.101304 -1.5,-4.256515 L 11.5,96.986971 l 3.420895,0.256514 c 3.119293,0.233899 3.499019,-0.03969 4.307008,-3.103144 0.487361,-1.847813 1.137488,-3.108284 1.444725,-2.801047 0.307236,0.307237 0.05068,2.015677 -0.570133,3.796534 -1.382137,3.964801 -0.416922,5.113752 3.937498,4.687014 2.739203,-0.268442 3.50608,-0.912608 4.55108,-3.822842 2.465272,-6.86557 0.663818,3.320108 -2.161686,12.22248 -0.505605,1.59302 0.195342,1.77714 6.753225,1.77386 4.024564,-0.002 13.752057,-0.29802 21.616653,-0.65779 12.644517,-0.57844 14.417078,-0.87427 15.317336,-2.55642 C 71.292532,104.58488 72.92944,91.107445 72.245973,89.25 71.890401,88.283667 64.101997,88 37.925762,88 L 4.0655022,88 3.7546062,99.25 C 3.5836134,105.4375 3.4563754,88.879861 3.4718551,62.455246 3.5034624,8.4999342 3.2862867,10.125312 10.740544,8.0551918 13.019075,7.4224214 28.201377,7.008957 49.282119,7.0055769 87.583906,6.9994357 89.534079,7.264541 92.433582,12.871562 93.769215,15.454391 94,21.133643 94,51.418605 l 0,35.517924 11.75,0.281736 11.75,0.281735 0.2789,12.61922 0.2789,12.61922 -3.1539,0.63078 c -3.18583,0.63717 -12.91638,0.59263 -76.4039,-0.34972 z M 116,99.962114 116,89 l -20.893703,0 -20.893702,0 0.924297,4.113744 c 1.066072,4.744742 0.529322,12.772906 -1.051457,15.726616 -0.596989,1.11549 -1.085854,2.17024 -1.086367,2.3439 -5.12e-4,0.17366 9.674488,0.18619 21.5,0.0279 L 116,110.92423 116,99.962114 Z M 11.150432,84.660128 c -1.2090071,-1.28693 -2.5640183,-3.64943 -3.0111355,-5.25 C 7.3143211,76.456917 7.6698064,38.99686 8.5309793,38.135687 8.7889407,37.877726 9,46.54625 9,57.399075 9,85.31381 8.7152117,84.945346 30.315741,84.977764 38.611461,84.990215 45.978145,84.54688 47.055391,83.970356 49.730416,82.538726 52,77.767395 52,73.57534 c 0,-2.919409 -0.524926,-3.795429 -3.059737,-5.106231 -1.682855,-0.870238 -4.720355,-3.052879 -6.75,-4.850312 -2.029645,-1.797433 -6.260083,-4.292065 -9.400975,-5.543626 -9.952838,-3.965939 -9.915317,-5.40507 0.285609,-10.954595 l 5.574896,-3.032864 3.629944,4.342576 c 1.996469,2.388417 5.000266,4.820273 6.675104,5.404125 L 52,54.895961 52.19586,45.69798 c 0.177302,-8.326426 0.22509,-8.534696 0.504333,-2.19798 0.169659,3.85 0.524855,7.951778 0.789324,9.115062 0.279558,1.229655 4.659333,5.164381 10.462421,9.399286 5.489862,4.006323 9.764189,7.635951 9.498503,8.06584 -0.265686,0.429888 0.0438,1.107238 0.687756,1.505222 0.731227,0.451923 0.902922,0.290138 0.457295,-0.430902 -1.661905,-2.689017 1.452184,-0.844138 4.765341,2.823131 3.719242,4.116756 3.917395,6.267279 0.808301,8.772361 C 77.600736,84.819428 74.793938,84.213713 65.109093,79.5 60.023932,77.025 55.494174,75 55.042964,75 c -0.45121,0 -1.106392,1.524566 -1.455961,3.387924 -0.349568,1.863358 -1.811012,4.563358 -3.247654,6 L 47.727273,87 69.851855,87 91.976438,87 91.738219,50.527327 C 91.500032,14.059605 91.499691,14.054346 89.223259,11.777327 86.947236,9.5007178 86.934869,9.4999101 49.991548,9.2148622 8.7219236,8.8964332 7.8702543,9.0139678 6.2486162,15.251602 5.7841374,17.038221 5.5865566,33.9125 5.8095478,52.75 L 6.2149864,87 9.7818072,87 13.348628,87 11.150432,84.660128 Z M 73,77.09362 c 0,-0.49851 1.0125,-0.645473 2.25,-0.326586 2.059944,0.530821 2.125838,0.428523 0.780089,-1.211058 -0.80845,-0.98497 -5.30845,-4.762885 -10,-8.395367 C 61.33854,63.528126 57.275,60.288759 57,59.962015 c -0.275,-0.326744 -3.125647,-2.081717 -6.33477,-3.899939 -4.805968,-2.722961 -6.236161,-3.122972 -8.111228,-2.268635 -4.089622,1.863357 -3.789872,4.734422 0.950486,9.103931 2.364969,2.179952 6.256446,4.862786 8.647728,5.961852 C 54.543497,69.958291 59.875,72.448421 64,74.392846 c 8.08997,3.813415 9,4.086502 9,2.700774 z M 70,75 C 69.098708,74.41754 68.975367,74.024514 69.690983,74.015313 70.346024,74.006891 71.160081,74.45 71.5,75 c 0.767305,1.241525 0.421123,1.241525 -1.5,0 z M 40.346475,54.594107 43.558646,51.188214 41.175923,48.418134 C 39.030084,45.923447 38.579793,45.782326 36.646601,46.998649 35.46597,47.741476 32.8125,49.254149 30.75,50.360145 28.6875,51.46614 27,52.759562 27,53.234415 c 0,0.824046 7.608406,4.697698 9.317152,4.743623 0.449434,0.01208 2.262629,-1.51069 4.029323,-3.383931 z m -3.997139,49.861483 c 1.182865,-0.62138 2.600664,-0.8077 3.150664,-0.41404 0.55,0.39366 3.114626,0.70607 5.69917,0.69424 3.972092,-0.0182 4.763325,-0.34753 5.113818,-2.12865 0.395675,-2.01072 0.420879,-2.00419 0.55083,0.14286 0.182993,3.02341 1.944517,2.86183 2.725538,-0.25 0.780562,-3.110007 2.165924,-3.243673 2.591093,-0.25 0.224962,1.58399 0.970845,2.22808 2.51983,2.17594 1.210154,-0.0407 1.971097,0.29677 1.690983,0.75 -0.726843,1.17606 -4.152255,1.0198 -4.921273,-0.2245 -0.449339,-0.72704 -1.04794,-0.71667 -1.952237,0.0338 -0.775389,0.64351 -4.956389,0.98461 -10.311637,0.84124 -7.390334,-0.19784 -8.621334,-0.44396 -6.856779,-1.37092 z M 8.0789474,103.41667 c 0.047984,-1.16495 0.2849403,-1.4019 0.6041666,-0.60417 0.2888706,0.72187 0.2533443,1.58437 -0.078947,1.91667 -0.3322917,0.33229 -0.5686404,-0.25834 -0.5252193,-1.3125 z M 42,101.5 c 0,-0.825 0.7301,-1.5 1.622445,-1.5 1.32879,0 1.397126,0.27149 0.377555,1.5 -0.684689,0.825 -1.414789,1.5 -1.622445,1.5 C 42.1699,103 42,102.325 42,101.5 Z m 17,0.10699 c 0,-0.76616 0.685413,-1.65603 1.523139,-1.977496 1.242658,-0.476852 1.328252,-0.220333 0.464816,1.393016 C 59.747365,103.34057 59,103.5603 59,101.60699 Z"
       id="path6008"
       inkscape:connector-curvature="0" />
    <path
       style="fill:#330199"
       d="m 4.3159438,112.35072 c 0.3535991,-0.3536 3.0113816,-1.01731 5.9061832,-1.47492 2.894802,-0.4576 5.401293,-1.24606 5.56998,-1.75212 0.168687,-0.50606 1.990642,-0.69425 4.048789,-0.41819 4.140593,0.55537 5.568324,-0.50345 6.686547,-4.95881 0.611117,-2.43488 0.424043,-2.72297 -1.669606,-2.5712 -1.296811,0.094 -3.317701,-0.14563 -4.490869,-0.53254 -1.847934,-0.60944 -2.222869,-0.22459 -2.805172,2.87935 -0.783037,4.17395 -1.796497,4.72161 -6.561796,3.54594 l -3.5,-0.86351 4.25,-0.10236 c 2.3375,-0.0563 4.25,-0.21783 4.25,-0.35896 0,-0.14113 0.417326,-1.71173 0.92739,-3.49022 0.879477,-3.06656 0.76323,-3.283671 -2.25,-4.202262 L 11.5,97.082283 l 3.420895,0.208858 c 3.104772,0.189558 3.50278,-0.101605 4.307008,-3.1508 0.487361,-1.847813 1.137488,-3.108284 1.444725,-2.801047 0.307236,0.307237 0.05068,2.015677 -0.570133,3.796534 -1.382137,3.964801 -0.416922,5.113752 3.937498,4.687014 2.739203,-0.268442 3.50608,-0.912608 4.55108,-3.822842 2.465272,-6.86557 0.663818,3.320108 -2.161686,12.22248 -0.505605,1.59302 0.195342,1.77714 6.753225,1.77386 4.024564,-0.002 13.752057,-0.29802 21.616653,-0.65779 12.644517,-0.57844 14.417078,-0.87427 15.317336,-2.55642 C 71.292532,104.58488 72.92944,91.107445 72.245973,89.25 71.890401,88.283667 64.101997,88 37.925762,88 L 4.0655022,88 3.6754763,98.75 C 3.460962,104.6625 3.446224,102.11563 3.6427252,93.090288 3.8392263,84.064947 4,62.542831 4,45.263365 L 4,13.846154 6.9230769,10.923077 9.8461538,8 48.786713,8 87.727273,8 90.363636,10.636364 93,13.272727 93,50.636364 93,88 l 12,0 12,0 0,12.48601 0,12.48602 -56.663482,0.0108 c -31.164915,0.006 -56.3741734,-0.27851 -56.0205742,-0.63211 z M 116,99.962114 116,89 94.893011,89 c -18.867536,0 -21.042358,0.168425 -20.497838,1.58742 1.885369,4.913195 1.519387,13.97235 -0.784252,19.41258 -0.55537,1.31155 2.067439,1.46383 20.876956,1.21211 L 116,110.92423 116,99.962114 Z M 92,50.923077 92,14.846154 89.076923,11.923077 86.153846,9 48.632687,9 11.111527,9 8.3057637,11.41235 5.5,13.8247 5.1981527,47.16235 C 5.0321366,65.498058 5.1650275,81.9625 5.4934657,83.75 L 6.0906261,87 49.045313,87 92,87 92,50.923077 Z M 75,80.694661 c 0,-0.565397 -0.284167,-0.743827 -0.631483,-0.396511 -0.347316,0.347315 -1.584816,0.101712 -2.75,-0.545786 C 70.453333,79.104867 69.1625,78.670699 68.75,78.787548 68.3375,78.904397 68,78.523442 68,77.940983 68,77.358524 67.55,77.160081 67,77.5 c -0.55,0.339919 -1,0.114919 -1,-0.5 0,-0.614919 -0.45,-0.839919 -1,-0.5 -0.55,0.339919 -1,0.114919 -1,-0.5 0,-0.614919 -0.369294,-0.889798 -0.820653,-0.610842 -0.45136,0.278955 -2.262236,-0.369487 -4.02417,-1.440983 C 57.393243,72.876679 55.062537,72 53.97583,72 52.889124,72 52,71.59276 52,71.095022 52,70.597284 50.0875,69.065107 47.75,67.690184 45.4125,66.315261 42.409059,64.022501 41.075686,62.595162 39.742313,61.167823 38.140822,60 37.516816,60 36.89281,60 35.508751,59.322376 34.44113,58.494169 c -1.821628,-1.413127 -1.775102,-1.446676 0.755748,-0.544948 2.267786,0.808 2.794289,0.653971 3.309109,-0.968083 0.336726,-1.060932 1.750934,-2.824672 3.142684,-3.919422 2.214522,-1.741944 2.800187,-1.820626 4.690891,-0.630211 C 47.527803,53.17964 49.625,54.125392 51,54.533176 c 1.375,0.407785 6.109688,3.492141 10.521529,6.854125 C 81.478963,76.595595 81.476905,76.593632 80.401433,79.396266 79.768888,81.044651 75,82.190996 75,80.694661 Z M 73,77.09362 c 0,-0.49851 1.0125,-0.645473 2.25,-0.326586 2.059944,0.530821 2.125838,0.428523 0.780089,-1.211058 -0.80845,-0.98497 -5.30845,-4.762885 -10,-8.395367 C 61.33854,63.528126 57.275,60.288759 57,59.962015 c -0.275,-0.326744 -3.125647,-2.081717 -6.33477,-3.899939 -4.805968,-2.722961 -6.236161,-3.122972 -8.111228,-2.268635 -4.089622,1.863357 -3.789872,4.734422 0.950486,9.103931 2.364969,2.179952 6.256446,4.862786 8.647728,5.961852 C 54.543497,69.958291 59.875,72.448421 64,74.392846 c 8.08997,3.813415 9,4.086502 9,2.700774 z M 70,75 C 69.098708,74.41754 68.975367,74.024514 69.690983,74.015313 70.346024,74.006891 71.160081,74.45 71.5,75 c 0.767305,1.241525 0.421123,1.241525 -1.5,0 z M 25,53.020345 c 0,-1.246791 5.985827,-5.367851 6.724242,-4.629436 C 32.059242,48.725909 31.874044,49 31.312689,49 30.751335,49 29.101335,50.103513 27.646023,51.452251 26.19071,52.800989 25,53.506632 25,53.020345 Z m 8,-5.468985 c 0,-0.275 1.35,-1.198112 3,-2.05136 1.65,-0.853248 3,-1.32636 3,-1.05136 0,0.275 -1.35,1.198112 -3,2.05136 -1.65,0.853248 -3,1.32636 -3,1.05136 z m 3.349336,56.90423 c 1.182865,-0.62138 2.600664,-0.8077 3.150664,-0.41404 0.55,0.39366 3.114626,0.70607 5.69917,0.69424 3.972092,-0.0182 4.763325,-0.34753 5.113818,-2.12865 0.395675,-2.01072 0.420879,-2.00419 0.55083,0.14286 0.182993,3.02341 1.944517,2.86183 2.725538,-0.25 0.780562,-3.110007 2.165924,-3.243673 2.591093,-0.25 0.224962,1.58399 0.970845,2.22808 2.51983,2.17594 1.210154,-0.0407 1.971097,0.29677 1.690983,0.75 -0.726843,1.17606 -4.152255,1.0198 -4.921273,-0.2245 -0.449339,-0.72704 -1.04794,-0.71667 -1.952237,0.0338 -0.775389,0.64351 -4.956389,0.98461 -10.311637,0.84124 -7.390334,-0.19784 -8.621334,-0.44396 -6.856779,-1.37092 z M 42,101.5 c 0,-0.825 0.7301,-1.5 1.622445,-1.5 1.32879,0 1.397126,0.27149 0.377555,1.5 -0.684689,0.825 -1.414789,1.5 -1.622445,1.5 C 42.1699,103 42,102.325 42,101.5 Z m 17,0.10699 c 0,-0.76616 0.685413,-1.65603 1.523139,-1.977496 1.242658,-0.476852 1.328252,-0.220333 0.464816,1.393016 C 59.747365,103.34057 59,103.5603 59,101.60699 Z"
       id="path6006"
       inkscape:connector-curvature="0" />
    <path
       style="fill:#336034"
       d="m 4.312759,112.35391 c 0.3553507,-0.35535 3.0145664,-1.0205 5.909368,-1.47811 2.894802,-0.4576 5.401293,-1.24606 5.56998,-1.75212 0.168687,-0.50606 1.990642,-0.69425 4.048789,-0.41819 4.140593,0.55537 5.568324,-0.50345 6.686547,-4.95881 0.611117,-2.43488 0.424043,-2.72297 -1.669606,-2.5712 -1.296811,0.094 -3.317701,-0.14563 -4.490869,-0.53254 -1.847934,-0.60944 -2.222869,-0.22459 -2.805172,2.87935 -0.783037,4.17395 -1.796497,4.72161 -6.561796,3.54594 l -3.5,-0.86351 4.25,-0.10236 c 2.3375,-0.0563 4.25,-0.21783 4.25,-0.35896 0,-0.14113 0.417326,-1.71173 0.92739,-3.49022 0.879477,-3.06656 0.76323,-3.283671 -2.25,-4.202262 L 11.5,97.082283 l 3.420895,0.208858 c 3.104772,0.189558 3.50278,-0.101605 4.307008,-3.1508 0.487361,-1.847813 1.137488,-3.108284 1.444725,-2.801047 0.307236,0.307237 0.05068,2.015677 -0.570133,3.796534 -1.382137,3.964801 -0.416922,5.113752 3.937498,4.687014 2.739203,-0.268442 3.50608,-0.912608 4.55108,-3.822842 2.465272,-6.86557 0.663818,3.320108 -2.161686,12.22248 -0.505605,1.59302 0.195342,1.77714 6.753225,1.77386 4.024564,-0.002 13.752057,-0.29802 21.616653,-0.65779 12.644517,-0.57844 14.417078,-0.87427 15.317336,-2.55642 C 71.292532,104.58488 72.92944,91.107445 72.245973,89.25 71.890401,88.283667 64.101997,88 37.925762,88 L 4.0655022,88 3.7336483,98.75 3.4017943,109.5 3.4508972,98.5 3.5,87.5 l 34.21837,-0.26309 34.21837,-0.263091 1.78163,2.721772 c 2.35848,3.603019 2.304386,15.425939 -0.09178,20.059609 L 71.94864,113 37.807653,113 C 19.030111,113 3.9574082,112.70926 4.312759,112.35391 Z m 32.036577,-7.89832 c 1.182865,-0.62138 2.600664,-0.8077 3.150664,-0.41404 0.55,0.39366 3.114626,0.70607 5.69917,0.69424 3.972092,-0.0182 4.763325,-0.34753 5.113818,-2.12865 0.395675,-2.01072 0.420879,-2.00419 0.55083,0.14286 0.182993,3.02341 1.944517,2.86183 2.725538,-0.25 0.780562,-3.110007 2.165924,-3.243673 2.591093,-0.25 0.224962,1.58399 0.970845,2.22808 2.51983,2.17594 1.210154,-0.0407 1.971097,0.29677 1.690983,0.75 -0.726843,1.17606 -4.152255,1.0198 -4.921273,-0.2245 -0.449339,-0.72704 -1.04794,-0.71667 -1.952237,0.0338 -0.775389,0.64351 -4.956389,0.98461 -10.311637,0.84124 -7.390334,-0.19784 -8.621334,-0.44396 -6.856779,-1.37092 z M 42,101.5 c 0,-0.825 0.7301,-1.5 1.622445,-1.5 1.32879,0 1.397126,0.27149 0.377555,1.5 -0.684689,0.825 -1.414789,1.5 -1.622445,1.5 C 42.1699,103 42,102.325 42,101.5 Z m 17,0.10699 c 0,-0.76616 0.685413,-1.65603 1.523139,-1.977496 1.242658,-0.476852 1.328252,-0.220333 0.464816,1.393016 C 59.747365,103.34057 59,103.5603 59,101.60699 Z M 61.82038,74.631673 C 47.845875,68.108033 43.928703,65.796758 40.595012,62.107927 39.547269,60.948567 38.170778,60 37.536142,60 c -0.634635,0 -2.027391,-0.677624 -3.095012,-1.505831 -1.821628,-1.413127 -1.775102,-1.446676 0.755748,-0.544948 2.267786,0.808 2.794289,0.653971 3.309109,-0.968083 0.336726,-1.060932 1.750934,-2.824672 3.142684,-3.919422 2.214522,-1.741944 2.800187,-1.820626 4.690891,-0.630211 C 47.527803,53.17964 49.625,54.125392 51,54.533176 54.326448,55.519703 79.420967,74.484183 80.398144,76.75 81.305255,78.853352 79.904104,81 77.624103,81 76.435047,81 69.323372,78.134253 61.82038,74.631673 Z M 73,77.09362 c 0,-0.49851 1.0125,-0.645473 2.25,-0.326586 2.059944,0.530821 2.125838,0.428523 0.780089,-1.211058 -0.80845,-0.98497 -5.30845,-4.762885 -10,-8.395367 C 61.33854,63.528126 57.275,60.288759 57,59.962015 c -0.275,-0.326744 -3.125647,-2.081717 -6.33477,-3.899939 -4.805968,-2.722961 -6.236161,-3.122972 -8.111228,-2.268635 -4.089622,1.863357 -3.789872,4.734422 0.950486,9.103931 2.364969,2.179952 6.256446,4.862786 8.647728,5.961852 C 54.543497,69.958291 59.875,72.448421 64,74.392846 c 8.08997,3.813415 9,4.086502 9,2.700774 z M 70,75 C 69.098708,74.41754 68.975367,74.024514 69.690983,74.015313 70.346024,74.006891 71.160081,74.45 71.5,75 c 0.767305,1.241525 0.421123,1.241525 -1.5,0 z M 25,53.020345 c 0,-1.246791 5.985827,-5.367851 6.724242,-4.629436 C 32.059242,48.725909 31.874044,49 31.312689,49 30.751335,49 29.101335,50.103513 27.646023,51.452251 26.19071,52.800989 25,53.506632 25,53.020345 Z m 8,-5.468985 c 0,-0.275 1.35,-1.198112 3,-2.05136 1.65,-0.853248 3,-1.32636 3,-1.05136 0,0.275 -1.35,1.198112 -3,2.05136 -1.65,0.853248 -3,1.32636 -3,1.05136 z"
       id="path6004"
       inkscape:connector-curvature="0" />
  </g>
</svg>
